<svg width="32" height="32" viewBox="0 0 32 32" fill="none" xmlns="http://www.w3.org/2000/svg">
  <!-- Background -->
  <rect width="32" height="32" rx="6" fill="#008080"/>
  
  <!-- Simple kanban columns -->
  <rect x="4" y="6" width="6" height="20" rx="1" fill="#FFFFFF" opacity="0.9"/>
  <rect x="13" y="6" width="6" height="20" rx="1" fill="#FFFFFF" opacity="0.9"/>
  <rect x="22" y="6" width="6" height="20" rx="1" fill="#FFFFFF" opacity="0.9"/>
  
  <!-- Column headers -->
  <rect x="4" y="6" width="6" height="3" rx="1" fill="#1E88E5"/>
  <rect x="13" y="6" width="6" height="3" rx="1" fill="#FF9800"/>
  <rect x="22" y="6" width="6" height="3" rx="1" fill="#4CAF50"/>
  
  <!-- Simple task dots -->
  <circle cx="7" cy="12" r="1" fill="#1E88E5"/>
  <circle cx="7" cy="15" r="1" fill="#1E88E5"/>
  <circle cx="7" cy="18" r="1" fill="#1E88E5"/>
  
  <circle cx="16" cy="12" r="1" fill="#FF9800"/>
  <circle cx="16" cy="15" r="1" fill="#FF9800"/>
  
  <circle cx="25" cy="12" r="1" fill="#4CAF50"/>
  <circle cx="25" cy="15" r="1" fill="#4CAF50"/>
  <circle cx="25" cy="18" r="1" fill="#4CAF50"/>
  <circle cx="25" cy="21" r="1" fill="#4CAF50"/>
</svg>
